HIERARCHY
ROOT Hips
{
	OFFSET 0.000000 0.000000 0.000000 
	CHANNELS 6 Xposition Yposition Zposition Zrotation Yrotation Xrotation
	JOINT LeftUpLeg
	{
		OFFSET 1.363060 -1.794630 0.839290 
		CHANNELS 3 Zrotation Yrotation Xrotation
		JOINT LeftLeg
		{
			OFFSET 2.448110 -6.726130 0.000000 
			CHANNELS 3 Zrotation Yrotation Xrotation
			JOINT LeftFoot
			{
				OFFSET 2.562200 -7.039590 0.000000 
				CHANNELS 3 Zrotation Yrotation Xrotation
				JOINT LeftToeBase
				{
					OFFSET 0.157640 -0.433110 2.322550 
					CHANNELS 3 Zrotation Yrotation Xrotation
					End Site
					{
						OFFSET 0.000000 0.000000 0.000000 
					}
				}
			}
		}
	}
	JOINT RightUpLeg
	{
		OFFSET -1.305520 -1.794630 0.839290 
		CHANNELS 3 Zrotation Yrotation Xrotation
		JOINT RightLeg
		{
			OFFSET -2.542530 -6.985550 0.000000 
			CHANNELS 3 Zrotation Yrotation Xrotation
			JOINT RightFoot
			{
				OFFSET -2.568260 -7.056230 0.000000 
				CHANNELS 3 Zrotation Yrotation Xrotation
				JOINT RightToeBase
				{
					OFFSET -0.164730 -0.452590 2.363150 
					CHANNELS 3 Zrotation Yrotation Xrotation
					End Site
					{
						OFFSET 0.000000 0.000000 0.000000 
					}
				}
			}
		}
	}
	JOINT Spine
	{
		OFFSET 0.028270 2.035590 -0.193380 
		CHANNELS 3 Zrotation Yrotation Xrotation
		JOINT Spine1
		{
			OFFSET 0.056720 2.048850 -0.042750 
			CHANNELS 3 Zrotation Yrotation Xrotation
			JOINT Neck1
			{
				OFFSET -0.054170 1.746240 0.172020 
				CHANNELS 3 Zrotation Yrotation Xrotation
				JOINT Head
				{
					OFFSET 0.104070 1.761360 -0.123970 
					CHANNELS 3 Zrotation Yrotation Xrotation
					End Site
					{
						OFFSET 0.000000 0.000000 0.000000 
					}
				}
			}
			JOINT LeftArm
			{
				OFFSET 3.362410 1.200890 -0.311210 
				CHANNELS 3 Zrotation Yrotation Xrotation
				JOINT LeftForeArm
				{
					OFFSET 4.983000 -0.000000 -0.000000 
					CHANNELS 3 Zrotation Yrotation Xrotation
					JOINT LeftHand
					{
						OFFSET 3.483560 -0.000000 -0.000000 
						CHANNELS 3 Zrotation Yrotation Xrotation
						JOINT LeftHandIndex1
						{
							OFFSET 0.715260 -0.000000 -0.000000 
							CHANNELS 3 Zrotation Yrotation Xrotation
							End Site
							{
								OFFSET 0.000000 0.000000 0.000000 
							}
						}
					}
				}
			}
			JOINT RightArm
			{
				OFFSET -3.136600 1.374050 -0.404650 
				CHANNELS 3 Zrotation Yrotation Xrotation
				JOINT RightForeArm
				{
					OFFSET -5.241900 -0.000000 -0.000000 
					CHANNELS 3 Zrotation Yrotation Xrotation
					JOINT RightHand
					{
						OFFSET -3.444170 -0.000000 -0.000000 
						CHANNELS 3 Zrotation Yrotation Xrotation
						JOINT RightHandIndex1
						{
							OFFSET -0.622530 -0.000000 -0.000000 
							CHANNELS 3 Zrotation Yrotation Xrotation
							End Site
							{
								OFFSET 0.000000 0.000000 0.000000 
							}
						}
					}
				}
			}
		}
	}
}
MOTION
Frames: 10
Frame Time: 0.041667
-10.374705 17.949835 -16.399318 174.140008 -5.640159 174.581517 -27.193688 -4.173516 0.111020 0.470498 6.642709 21.283078 0.159436 -7.155408 5.029753 0.342100 -3.758600 -10.398400 10.734826 2.538519 -14.509455 -10.310414 -17.330775 60.851547 0.373134 -3.921847 -2.331275 -0.177500 2.714100 -7.483800 1.136896 4.374989 3.357752 -3.036525 2.158071 -3.725848 2.661232 6.574158 29.500575 3.955300 0.348700 16.188500 -81.979345 1.026513 12.507674 12.379717 -17.193122 -1.998709 -1.428871 -1.817471 12.633462 -7.125000 0.000000 0.000000 78.879715 8.055042 6.636686 -16.816750 24.689319 -3.695808 0.301073 -0.087218 5.692888 7.125000 0.000000 0.000000 
-10.353442 17.971198 -16.304329 174.380053 -5.771695 174.513778 -26.881299 -4.205540 -0.124821 0.441553 6.597575 21.128605 0.159674 -7.099660 5.402656 0.333800 -3.713100 -10.271000 11.129053 1.725355 -13.534828 -10.431514 -17.368739 61.222566 0.472399 -4.546665 -2.003801 -0.114500 2.182100 -6.009200 1.140334 4.533665 3.375262 -3.174332 2.239516 -3.594562 2.831896 6.463202 29.975788 4.042600 0.235700 16.383100 -81.625331 1.128830 11.575348 12.140470 -16.862167 -1.909420 -1.459087 -1.785734 12.925305 -7.125000 0.000000 0.000000 78.826510 8.076475 6.884281 -16.988154 24.929473 -3.775038 0.302855 -0.085861 5.361858 7.125000 0.000000 0.000000 
-10.331583 17.991964 -16.210235 174.546217 -5.949623 174.537849 -26.660213 -4.474448 -0.361182 0.409609 6.558194 20.982396 0.154428 -6.844513 5.792585 0.252300 -3.232000 -8.925200 11.400713 0.857966 -12.598494 -10.498506 -17.378321 61.405680 0.582202 -5.244469 -1.411440 -0.058200 1.556200 -4.280600 1.129201 4.639901 3.353428 -3.253390 2.299500 -3.495294 2.831001 6.444662 30.325401 4.038900 0.165900 16.491400 -81.356141 1.331445 10.212755 11.946292 -16.606095 -1.836478 -1.480815 -1.769607 13.572568 -7.125000 0.000000 0.000000 78.762866 8.043277 7.327115 -17.181907 25.194572 -3.865567 0.303336 -0.079209 5.073229 7.125000 0.000000 0.000000 
-10.304557 18.014817 -16.120215 174.786283 -6.091694 174.545631 -26.325196 -4.651211 -0.651326 0.380662 6.526427 20.858090 0.152344 -6.608002 6.101204 0.234100 -3.114300 -8.597000 11.789800 0.041699 -11.626478 -10.538054 -17.371128 61.496450 0.691017 -5.941989 -0.946775 -0.023300 0.984800 -2.706900 1.136033 4.741573 3.307614 -3.299563 2.357610 -3.459301 2.691166 6.456861 30.764339 3.951200 0.099600 16.697500 -81.100253 1.605279 8.728923 11.788793 -16.412023 -1.778242 -1.505739 -1.747594 14.370843 -7.125000 0.000000 0.000000 78.764272 8.064433 7.669681 -17.266079 25.309308 -3.906103 0.302843 -0.076732 4.968793 7.125000 0.000000 0.000000 
-10.278624 18.033894 -16.028108 174.980569 -6.243801 174.514186 -26.048456 -4.726566 -0.934468 0.356209 6.496042 20.742989 0.150843 -6.407172 6.501576 0.224800 -3.052200 -8.424200 12.133437 -0.752426 -10.547952 -10.526320 -17.335830 61.424822 0.762777 -6.400226 -0.665052 -0.029900 1.117000 -3.070700 1.133476 4.854296 3.281868 -3.347525 2.417938 -3.417372 2.744887 6.250143 31.219141 3.943400 -0.048600 16.918600 -80.857322 1.845657 7.426892 11.631333 -16.213480 -1.721991 -1.539676 -1.707789 15.036770 -7.125000 0.000000 0.000000 78.778127 8.062017 7.797341 -17.348446 25.424437 -3.945107 0.304054 -0.082444 5.079089 7.125000 0.000000 0.000000 
-10.255076 18.047606 -15.933020 175.229586 -6.421131 174.522979 -25.720247 -4.775815 -1.264163 0.331661 6.464841 20.624713 0.154963 -6.331942 6.876585 0.233900 -3.112700 -8.592800 12.510029 -1.545011 -9.482529 -10.466226 -17.272636 61.189268 0.825086 -6.809202 -0.267282 -0.052200 1.474300 -4.055000 1.130213 4.941122 3.268568 -3.438460 2.462835 -3.299441 3.098944 5.754419 31.557353 4.075100 -0.292300 17.048600 -80.592538 2.106742 6.522319 11.526178 -16.098668 -1.685906 -1.567285 -1.734447 15.258148 -7.125000 0.000000 0.000000 78.791979 8.108319 7.959891 -17.457852 25.576938 -3.997856 0.303473 -0.080110 5.075439 7.125000 0.000000 0.000000 
-10.226957 18.064298 -15.836740 175.513029 -6.614210 174.505750 -25.335593 -4.901725 -1.578274 0.307337 6.438206 20.517398 0.159893 -6.228986 7.267238 0.211900 -2.963400 -8.176800 12.930180 -2.343049 -8.407851 -10.362182 -17.183355 60.803241 0.872933 -7.153346 0.321135 -0.079900 1.823900 -5.019300 1.137938 4.981034 3.215703 -3.481687 2.482341 -3.308129 3.390398 5.138971 31.918493 4.145600 -0.589200 17.212600 -80.334324 2.531204 5.745291 11.512345 -16.129902 -1.682672 -1.576297 -1.775742 15.106180 -7.125000 0.000000 0.000000 78.841552 8.120427 8.206017 -17.542838 25.691871 -4.039846 0.300275 -0.074241 5.040050 7.125000 0.000000 0.000000 
-10.200030 18.084766 -15.740559 175.779393 -6.764284 174.496794 -24.975491 -5.012266 -1.919534 0.287447 6.417419 20.432110 0.169651 -6.290280 7.547757 0.209900 -2.949600 -8.138400 13.310224 -3.081313 -7.327346 -10.209699 -17.066769 60.257014 0.887166 -7.307722 0.965134 -0.118800 2.222200 -6.120100 1.123280 5.041770 3.135063 -3.578985 2.514352 -3.367945 3.500299 4.638393 32.207156 4.129100 -0.845000 17.317600 -80.038611 2.994719 5.061649 11.494392 -16.151262 -1.679295 -1.576903 -1.770519 14.842643 -7.125000 0.000000 0.000000 78.938775 8.018790 8.444147 -17.652311 25.841092 -4.093628 0.297095 -0.075985 5.082968 7.125000 0.000000 0.000000 
-10.171216 18.096292 -15.639708 176.058463 -6.889401 174.509048 -24.589816 -5.060580 -2.331829 0.270278 6.400631 20.358701 0.183342 -6.428642 7.915656 0.237000 -3.133100 -8.649500 13.756148 -3.670861 -6.244872 -10.018953 -16.925837 59.578550 0.900443 -7.463647 1.583865 -0.110100 2.139500 -5.891300 1.125639 5.126114 3.081730 -3.670051 2.555820 -3.369835 3.681543 4.125340 32.410869 4.189500 -1.114700 17.396600 -79.777139 3.156689 4.053637 11.319500 -15.917213 -1.620279 -1.589524 -1.737793 15.056929 -7.125000 0.000000 0.000000 78.970662 7.978627 8.717444 -17.812359 26.054521 -4.170112 0.299363 -0.071463 5.040385 7.125000 0.000000 0.000000 
-10.138923 18.099869 -15.535082 176.311193 -6.982637 174.535332 -24.205075 -5.110351 -2.782123 0.260619 6.403131 20.340133 0.197962 -6.575605 8.279488 0.297300 -3.506300 -9.691500 14.223122 -4.155738 -5.146653 -9.788039 -16.757837 58.750956 0.919051 -7.694469 2.352477 -0.066500 1.663800 -4.577300 1.134989 5.259412 3.063625 -3.706609 2.619245 -3.318387 3.977734 3.336363 32.567725 4.299100 -1.491700 17.512900 -79.552689 3.201929 3.083051 11.156692 -15.698175 -1.566031 -1.603826 -1.726921 15.363111 -7.125000 0.000000 0.000000 78.970417 8.048782 8.957075 -17.937756 26.221850 -4.230286 0.302032 -0.068004 4.746112 7.125000 0.000000 0.000000 
